<?xml version="1.0" standalone="no"?>
<!DOCTYPE svg PUBLIC "-//W3C//DTD SVG 20010904//EN"
 "http://www.w3.org/TR/2001/REC-SVG-20010904/DTD/svg10.dtd">
<svg version="1.0" xmlns="http://www.w3.org/2000/svg"
 width="708.000000pt" height="708.000000pt" viewBox="0 0 708.000000 708.000000"
 preserveAspectRatio="xMidYMid meet">
<metadata>
Created by potrace 1.11, written by Peter Selinger 2001-2013
</metadata>
<g transform="translate(0.000000,708.000000) scale(0.100000,-0.100000)"
fill="#000000" stroke="none">
<path d="M3428 6335 c-2 -2 -39 -6 -83 -9 -44 -3 -93 -8 -110 -11 -60 -10 -91
-15 -130 -21 -71 -10 -277 -61 -380 -94 -239 -76 -514 -205 -687 -322 -31 -21
-61 -38 -66 -38 -6 0 -13 -7 -16 -16 -3 -8 -10 -12 -16 -9 -5 3 -10 3 -10 -2
0 -4 -17 -19 -37 -33 -20 -14 -55 -40 -77 -58 -23 -17 -46 -35 -51 -40 -78
-56 -283 -254 -370 -356 -27 -32 -55 -63 -60 -69 -6 -7 -29 -37 -53 -67 -23
-30 -46 -60 -51 -66 -55 -67 -208 -319 -264 -434 -82 -171 -174 -406 -191
-490 -2 -8 -6 -22 -9 -30 -3 -8 -11 -37 -17 -65 -6 -27 -13 -59 -15 -70 -3
-11 -8 -33 -11 -49 -2 -16 -6 -32 -8 -35 -2 -3 -7 -26 -10 -51 -3 -25 -8 -56
-11 -70 -36 -199 -42 -628 -11 -830 2 -14 7 -47 11 -75 9 -68 11 -79 30 -165
9 -41 18 -86 21 -100 10 -50 57 -204 89 -293 105 -294 274 -594 475 -847 83
-105 318 -346 397 -409 23 -18 52 -41 65 -52 13 -10 28 -22 33 -27 60 -48 223
-162 234 -162 5 0 14 -6 20 -14 7 -8 29 -23 49 -34 20 -10 89 -46 152 -79 63
-34 167 -82 230 -108 63 -26 124 -51 135 -56 29 -12 293 -90 319 -94 11 -2 46
-8 76 -15 30 -6 66 -13 80 -15 14 -2 41 -6 60 -9 43 -8 84 -13 175 -23 94 -11
490 -10 590 1 44 4 96 10 115 11 19 2 42 5 50 8 8 3 56 13 105 22 50 9 104 19
120 22 17 3 38 9 48 14 9 5 17 8 17 5 0 -5 168 45 260 78 116 42 288 120 400
181 98 53 318 192 345 218 7 7 25 21 41 32 25 18 41 31 113 90 78 64 224 207
309 302 206 230 392 524 510 803 37 87 117 314 127 357 2 10 17 77 33 148 39
169 57 285 68 435 6 68 5 392 0 440 -2 19 -7 69 -10 110 -7 79 -9 89 -31 210
-37 200 -89 380 -165 570 -51 128 -156 340 -204 412 -20 29 -36 58 -36 65 0 6
-3 13 -7 15 -5 2 -26 30 -48 63 -106 160 -349 434 -515 581 -337 297 -807 539
-1245 640 -60 14 -119 28 -130 31 -11 2 -38 6 -60 8 -22 2 -40 5 -40 6 0 2
-25 6 -95 14 -30 3 -68 9 -85 11 -32 6 -482 14 -487 9z m407 -289 c39 -3 88
-8 110 -11 22 -3 54 -7 70 -9 17 -2 41 -6 55 -9 14 -4 39 -8 55 -11 44 -6 165
-34 205 -46 19 -6 44 -13 54 -15 28 -6 146 -45 181 -60 17 -7 66 -27 110 -46
104 -43 272 -130 358 -185 37 -24 70 -44 73 -44 3 0 12 -6 19 -12 8 -7 30 -24
50 -38 20 -14 85 -64 143 -111 200 -161 389 -367 530 -579 43 -63 80 -116 85
-118 4 -2 7 -12 7 -22 0 -10 4 -20 9 -22 16 -6 160 -314 200 -428 56 -159 100
-318 115 -415 3 -16 7 -46 10 -65 3 -19 8 -45 10 -56 19 -91 28 -534 13 -629
-4 -22 -9 -62 -12 -90 -7 -59 -12 -93 -25 -160 -6 -27 -12 -59 -14 -70 -32
-167 -139 -462 -229 -635 -72 -139 -193 -335 -232 -376 -5 -6 -21 -26 -35 -44
-104 -140 -289 -330 -440 -451 -110 -88 -276 -201 -375 -255 -39 -20 -83 -45
-100 -54 -137 -75 -494 -203 -635 -226 -20 -4 -55 -11 -90 -19 -9 -2 -115 -19
-135 -21 -165 -20 -447 -25 -585 -10 -41 4 -82 8 -90 8 -76 2 -462 90 -487
110 -7 6 -13 8 -13 5 0 -16 -282 101 -430 180 -99 52 -362 220 -380 242 -3 4
-30 26 -60 51 -385 316 -678 736 -840 1205 -43 123 -100 350 -106 415 -1 19
-3 35 -4 35 -1 0 -7 33 -15 95 -10 71 -19 238 -18 335 1 94 10 280 13 280 1 0
3 14 5 30 1 17 3 30 4 30 1 0 4 16 5 35 2 19 6 50 10 68 3 17 8 47 12 65 7 46
52 220 70 275 18 56 62 179 74 207 35 83 82 182 117 249 24 44 43 83 43 88 0
4 3 8 8 8 4 0 15 17 25 38 21 43 171 254 237 333 52 63 266 279 325 328 118
99 339 252 435 300 25 12 63 32 85 44 58 32 218 102 305 132 92 32 104 36 107
36 2 0 21 6 43 14 22 8 40 12 40 10 0 -2 16 3 36 11 20 8 39 13 42 10 3 -3 11
-1 19 5 7 6 13 9 13 6 0 -3 15 -1 33 4 17 5 75 16 127 25 52 8 106 17 120 19
14 3 81 8 150 11 69 4 126 7 127 8 4 3 190 -3 258 -8z"/>
<path d="M2494 5552 c-20 -3 -20 -8 -19 -225 0 -122 -1 -229 -3 -239 -2 -10
-25 -23 -55 -33 -72 -23 -136 -53 -174 -82 -44 -32 -42 -46 5 -38 45 7 191 13
212 8 13 -4 15 -151 15 -1252 -1 -874 -4 -1253 -12 -1262 -16 -21 -51 -135
-68 -219 -14 -74 -15 -360 -1 -420 3 -14 11 -52 16 -85 19 -115 94 -370 139
-470 10 -22 22 -50 26 -63 4 -13 9 -22 11 -19 3 2 0 15 -5 29 -5 14 -12 38
-14 54 -3 16 -10 54 -16 84 -19 100 -31 365 -18 387 3 5 8 33 11 63 8 70 40
177 76 256 77 170 231 326 400 405 58 28 218 85 260 93 14 3 43 10 65 16 22 5
56 13 75 16 19 3 38 8 43 11 4 2 20 7 35 9 30 5 235 44 267 50 11 3 36 7 55
10 19 3 41 7 49 10 8 2 30 7 50 10 20 2 56 9 81 14 63 14 111 23 135 25 11 1
40 8 65 15 25 6 56 14 70 15 88 11 481 121 555 155 11 5 43 18 70 29 104 40
254 124 336 187 56 44 167 165 198 217 86 146 111 254 106 467 -2 85 -6 166
-9 180 -4 14 -8 43 -11 65 -14 108 -85 319 -143 425 -84 152 -203 288 -347
395 -22 17 -41 33 -43 38 -2 4 -10 7 -17 7 -7 0 -15 4 -17 9 -4 13 -163 98
-248 133 -80 34 -191 73 -235 83 -16 4 -23 6 -57 16 -18 6 -42 12 -53 14 -11
3 -33 8 -50 12 -39 9 -33 8 -88 17 -27 4 -56 9 -65 11 -10 1 -39 6 -67 9 -27
4 -57 8 -65 11 -71 18 -546 26 -715 12 -142 -12 -247 -24 -295 -32 -14 -3 -45
-7 -70 -10 -25 -3 -67 -10 -95 -15 -27 -5 -64 -12 -81 -15 l-31 -5 1 205 c1
199 0 205 -19 205 -11 1 -60 2 -110 3 -49 1 -99 1 -111 -1z m351 -680 c215
-72 399 -184 510 -311 16 -19 35 -39 40 -45 79 -80 174 -301 193 -446 14 -105
6 -390 -12 -440 -3 -8 -8 -31 -11 -50 -8 -48 -8 -47 -35 -120 -13 -36 -31 -76
-40 -90 -9 -14 -30 -45 -46 -69 -73 -111 -230 -254 -414 -375 -115 -76 -288
-186 -293 -186 -3 0 -2 2137 1 2153 2 10 33 4 107 -21z"/>
</g>
</svg>
